<?xml version="1.0" standalone="no"?><!DOCTYPE svg PUBLIC "-//W3C//DTD SVG 1.1//EN"
        "http://www.w3.org/Graphics/SVG/1.1/DTD/svg11.dtd">
<svg t="1700919400825" class="icon" viewBox="0 0 1024 1024" version="1.1" xmlns="http://www.w3.org/2000/svg" p-id="7994"
     id="mx_n_1700919400826" xmlns:xlink="http://www.w3.org/1999/xlink" width="200" height="200">
    <path d="M999.760474 97.665113c-2.781585 91.787144-22.608764 180.04957-55.71427 265.5975-39.530503 102.227119-97.469008 192.280287-178.630395 266.650271a22.799708 22.799708 0 0 0-7.782245 20.998644c2.843513 27.547497 5.062588 55.094993 7.906101 82.64249 6.61078 64.17772-15.874129 116.676911-67.573421 153.92125-55.528487 39.963996-113.219282 76.898697-170.476583 114.266892-36.134802 23.656374-80.480181 2.224236-84.495159-40.583274a6139.964379 6139.964379 0 0 1-11.673368-147.625269c-1.728814-24.709145-1.04761-24.889767-24.889767-28.042918-63.37266-8.401522-113.033499-38.482893-147.005992-93.082464-17.541015-28.042918-26.252176-59.171899-29.276311-91.787144-0.928915-9.75877-4.881965-12.292645-14.083387-12.788066-51.265798-2.843513-102.531596-5.867648-153.802555-9.75877-42.559798-3.209918-64.17772-48.179735-41.383172-85.609858 16.059912-26.376031 33.167434-52.070858 49.722766-78.075323C88.44821 386.366799 106.175008 358.200025 124.025662 330.280963c32.7391-51.265798 79.866065-78.93715 140.209429-79.432572 34.59177-0.247711 69.302235 5.80572 103.832078 9.572987 6.548852 0.681204 11.177946-0.185783 15.688346-5.248371 80.299559-89.686763 179.55931-150.21591 291.911604-190.737255a826.853229 826.853229 0 0 1 196.047554-44.716946c33.78671-3.519557 67.821131-4.75811 101.607842 1.481103 18.408003 3.395701 19.393685 4.138833 22.237198 22.175271 2.781585 17.912582 5.062588 36.010946 4.200761 54.357021v-0.067088z m-160.160464 226.438563c0.985682-78.441729-63.991936-145.834527-141.200272-147.129847-80.175704-1.357248-149.601794 56.947663-151.516392 147.991674-1.604959 75.974943 67.201855 144.657901 143.91993 145.21525 81.321366 0.856666 147.940068-64.373824 148.791573-145.695189l0.005161-0.381888zM154.788237 655.545783c15.130997 0.247711 23.594446 6.920418 29.028601 22.422981 21.308283 60.776858 60.100814 106.856213 116.367272 138.109049a240.542593 240.542593 0 0 0 39.035081 17.045594c24.337578 8.339594 29.895588 31.995968 11.859151 50.218188-26.747597 26.990147-53.737745 53.675817-80.423414 80.604037-8.835016 8.896943-18.531858 13.154471-31.005126 8.525377-12.602283-4.696182-18.655714-14.021459-19.331757-27.114003-0.371566-8.277667-0.185783-16.555333-0.371566-24.889766-0.371566-15.254852-0.495421-15.378707-14.516881-10.687686-30.019443 9.882626-60.038886 19.951034-89.996402 29.895588-8.896943 2.90544-17.726799 4.138833-26.376031-0.743132-12.726138-7.224896-17.479088-20.07489-12.354572-35.825164 9.882626-30.88127 20.384528-61.51999 30.576792-92.282565 4.448472-13.340255 4.138833-13.587965-10.254192-13.835676-8.649233-0.185783-17.41716 0-26.066392-0.433493a27.671352 27.671352 0 0 1-26.376032-18.717642c-4.572327-11.673368-1.604959-21.803704 6.920419-30.391009 27.857135-28.042918 55.838125-55.961981 83.819115-83.881043a24.141474 24.141474 0 0 1 19.465934-8.019635z"
          fill="#2775b6" p-id="7995"></path>
</svg>
